<svg xmlns="http://www.w3.org/2000/svg" xmlns:xlink="http://www.w3.org/1999/xlink" width="24" height="24" viewBox="0 0 24 24">
    <defs>
        <path id="prefix__a" d="M9.613 17.21l.094.083L12 19.585l2.293-2.292c.36-.36.928-.388 1.32-.083l.094.083c.36.36.388.928.083 1.32l-.083.094-3 3c-.36.36-.928.388-1.32.083l-.094-.083-3-3c-.39-.39-.39-1.024 0-1.414.36-.36.928-.388 1.32-.083zm7.68-8.917c.39-.39 1.024-.39 1.414 0l3 3 .083.094c.305.392.278.96-.083 1.32l-3 3-.094.083c-.392.305-.96.278-1.32-.083l-.083-.094c-.305-.392-.278-.96.083-1.32L19.585 12l-2.292-2.293-.083-.094c-.305-.392-.278-.96.083-1.32zm-10.586 0c.36.36.388.928.083 1.32l-.083.094L4.415 12l2.292 2.293c.36.36.388.928.083 1.32l-.083.094c-.36.36-.928.388-1.32.083l-.094-.083-3-3c-.36-.36-.388-.928-.083-1.32l.083-.094 3-3c.39-.39 1.024-.39 1.414 0zM12 9c1.657 0 3 1.343 3 3s-1.343 3-3 3-3-1.343-3-3 1.343-3 3-3zm0 2c-.552 0-1 .448-1 1s.448 1 1 1 1-.448 1-1-.448-1-1-1zm-.613-8.79c.392-.305.96-.278 1.32.083l3 3 .083.094c.305.392.278.96-.083 1.32l-.094.083c-.392.305-.96.278-1.32-.083L12 4.415 9.707 6.707l-.094.083c-.392.305-.96.278-1.32-.083-.39-.39-.39-1.024 0-1.414l3-3z"/>
    </defs>
    <g fill="none" fill-rule="evenodd">
        <mask id="prefix__b" fill="#fff">
            <use xlink:href="#prefix__a"/>
        </mask>
        <use fill="#979797" fill-rule="nonzero" xlink:href="#prefix__a"/>
        <g fill="#006594" mask="url(#prefix__b)">
            <path d="M0 0H24V24H0z"/>
        </g>
    </g>
</svg>
