<svg xmlns="http://www.w3.org/2000/svg" xmlns:xlink="http://www.w3.org/1999/xlink" width="24" height="24" viewBox="0 0 24 24">
    <defs>
        <path id="prefix__a" d="M18 3c1.657 0 3 1.343 3 3 0 1.306-.834 2.417-2 2.829v6.342c1.166.412 2 1.523 2 2.829 0 1.657-1.343 3-3 3-1.306 0-2.417-.834-2.829-2H8.829C8.417 20.167 7.306 21 6 21c-1.657 0-3-1.343-3-3 0-1.306.834-2.417 2-2.829V8.829C3.833 8.417 3 7.306 3 6c0-1.657 1.343-3 3-3 1.306 0 2.417.834 2.829 2h6.342c.412-1.166 1.523-2 2.829-2zm0 14c-.552 0-1 .448-1 1s.448 1 1 1 1-.448 1-1-.448-1-1-1zM6 17c-.552 0-1 .448-1 1s.448 1 1 1 1-.448 1-1-.448-1-1-1zm9.171-10H8.829c-.301.853-.976 1.528-1.828 1.829v6.342c.852.301 1.527.976 1.828 1.828h6.342c.301-.852.976-1.527 1.828-1.828V8.829c-.852-.301-1.527-.976-1.828-1.828zM6 5c-.552 0-1 .448-1 1s.448 1 1 1 1-.448 1-1-.448-1-1-1zm12 0c-.552 0-1 .448-1 1s.448 1 1 1 1-.448 1-1-.448-1-1-1z"/>
    </defs>
    <g fill="none" fill-rule="evenodd">
        <mask id="prefix__b" fill="#fff">
            <use xlink:href="#prefix__a"/>
        </mask>
        <use fill="#006594" fill-rule="nonzero" xlink:href="#prefix__a"/>
        <g fill="#006594" mask="url(#prefix__b)">
            <path d="M0 0H24V24H0z"/>
        </g>
    </g>
</svg>
