<svg xmlns="http://www.w3.org/2000/svg" xmlns:xlink="http://www.w3.org/1999/xlink" width="24" height="24" viewBox="0 0 24 24">
    <defs>
        <path id="prefix__a" d="M19.9 2.997c-.153-.438-.46-.788-.865-.985-1.464-.713-3.106-.788-4.624-.21l-1.586.602L8.298.064c-.143-.075-.31-.084-.46-.027L5.135 1.065c-.204.077-.35.267-.38.491-.03.225.062.449.239.581l2.868 2.155-3.986 1.516-1.48-1.254c-.16-.135-.376-.173-.57-.1l-1.44.549c-.147.055-.265.17-.331.316-.066.148-.073.316-.02.469l.918 2.635c.3.858.9 1.542 1.692 1.928.791.386 1.68.426 2.5.114L8.657 9.13 7.9 12.237c-.054.22.013.452.174.605.11.103.25.158.394.158.067 0 .135-.012.2-.037l2.703-1.028c.15-.057.272-.176.336-.33l1.815-4.325L18.9 5.234c.865-.329 1.313-1.333.998-2.237zM6.577 1.82l1.425-.542 3.3 1.706-2.108.802-2.617-1.966zM18.5 4.084l-5.615 2.135c-.15.057-.272.176-.336.33l-1.815 4.325-1.425.542.757-3.107c.054-.22-.013-.452-.174-.605-.11-.103-.25-.158-.394-.158-.067 0-.135.012-.2.037L4.744 9.315c-.526.2-1.096.174-1.604-.074-.508-.247-.894-.686-1.085-1.237l-.718-2.06.579-.22 1.48 1.253c.16.135.375.173.569.1l10.847-4.125c1.224-.466 2.548-.405 3.728.17.12.059.212.163.258.294.094.27-.04.57-.298.668z"/>
    </defs>
    <g fill="none" fill-rule="evenodd" transform="translate(2 5)">
        <mask id="prefix__b" fill="#fff">
            <use xlink:href="#prefix__a"/>
        </mask>
        <use fill="#006594" fill-rule="nonzero" xlink:href="#prefix__a"/>
        <g fill="#006594" mask="url(#prefix__b)">
            <path d="M0 0H24V24H0z" transform="translate(-2 -5)"/>
        </g>
    </g>
</svg>
