<svg xmlns="http://www.w3.org/2000/svg" xmlns:xlink="http://www.w3.org/1999/xlink" width="24" height="24" viewBox="0 0 24 24">
    <defs>
        <path id="prefix__a" d="M20.027 10.654H6.581c-.002 0-.004-.005-.002-.005l5.072-4.875c.41-.393.424-1.047.028-1.457-.394-.41-1.048-.425-1.458-.029l-6.905 6.636c-.201.194-.316.464-.316.743 0 .28.115.548.316.743l6.943 6.672c.199.192.457.289.714.289.272 0 .542-.106.743-.317.394-.41.382-1.064-.028-1.458l-5.072-4.875c-.002-.002 0-.004.003-.004H20.05c.548 0 .996-.43 1.029-.968.035-.598-.455-1.095-1.053-1.095z"/>
    </defs>
    <g fill="none" fill-rule="evenodd">
        <mask id="prefix__b" fill="#fff">
            <use xlink:href="#prefix__a"/>
        </mask>
        <g fill="#7F8083" mask="url(#prefix__b)">
            <path d="M0 0H24V24H0z"/>
        </g>
    </g>
</svg>
