<svg xmlns="http://www.w3.org/2000/svg" xmlns:xlink="http://www.w3.org/1999/xlink" width="24" height="24" viewBox="0 0 24 24">
    <defs>
        <path id="prefix__a" d="M12 1.688c1.392 0 2.742.271 4.012.808 1.229.52 2.33 1.263 3.28 2.21.946.947 1.692 2.051 2.21 3.28.539 1.272.81 2.622.81 4.014 0 1.392-.271 2.742-.808 4.012-.52 1.229-1.263 2.33-2.21 3.28-.947.946-2.051 1.692-3.28 2.21-1.272.539-2.622.81-4.014.81-1.392 0-2.742-.271-4.013-.808-1.228-.52-2.33-1.263-3.278-2.21-.947-.947-1.693-2.051-2.21-3.28-.54-1.272-.812-2.622-.812-4.014 0-1.392.272-2.742.81-4.013.52-1.228 1.262-2.33 2.21-3.278.946-.947 2.05-1.693 3.278-2.21 1.273-.54 2.623-.812 4.015-.812zM12 0C5.372 0 0 5.372 0 12s5.372 12 12 12 12-5.372 12-12S18.628 0 12 0zm0 15c-.518 0-.938-.42-.938-.938V5.415c0-.518.42-.937.938-.937s.938.42.938.937v8.649c0 .517-.42.937-.938.937zm-1.055 2.555c0 .582.473 1.054 1.055 1.054s1.055-.472 1.055-1.054c0-.583-.473-1.055-1.055-1.055s-1.055.472-1.055 1.055z"/>
    </defs>
    <g fill="none" fill-rule="evenodd">
        <mask id="prefix__b" fill="#fff">
            <use xlink:href="#prefix__a"/>
        </mask>
        <g fill="#EA1A65" mask="url(#prefix__b)">
            <path d="M0 0H24V24H0z"/>
        </g>
    </g>
</svg>
