<svg xmlns="http://www.w3.org/2000/svg" xmlns:xlink="http://www.w3.org/1999/xlink" width="299" height="24" viewBox="0 0 299 24">
    <defs>
        <path id="prefix__a" d="M20 13v7h-9v-7h9zM9 13v7H4v-7h5zm9 2h-5v3h5v-3zM7 15H6v3h1v-3zm4-11v7H4V4h7zm9 0v7h-7V4h7zM9 6H6v3h3V6zm9 0h-3v3h3V6z"/>
        <path id="prefix__c" d="M15.682 4.368l4.773 4.773L8.788 20.81l-4.773-4.773L15.682 4.368zm0 2.122L14.62 7.55l1.591 1.591-1.06 1.06-1.592-1.59-1.06 1.06 1.591 1.592-1.06 1.06-1.592-1.592-1.061 1.061 1.592 1.592-1.061 1.06-1.591-1.59-1.061 1.06 2.122 2.122-1.061 1.06-2.122-2.122-1.06 1.062 2.65 2.652 9.547-9.546L15.68 6.49z"/>
        <path id="prefix__e" d="M9.613 17.21l.094.083L12 19.585l2.293-2.292c.36-.36.928-.388 1.32-.083l.094.083c.36.36.388.928.083 1.32l-.083.094-3 3c-.36.36-.928.388-1.32.083l-.094-.083-3-3c-.39-.39-.39-1.024 0-1.414.36-.36.928-.388 1.32-.083zm7.68-8.917c.39-.39 1.024-.39 1.414 0l3 3 .083.094c.305.392.278.96-.083 1.32l-3 3-.094.083c-.392.305-.96.278-1.32-.083l-.083-.094c-.305-.392-.278-.96.083-1.32L19.585 12l-2.292-2.293-.083-.094c-.305-.392-.278-.96.083-1.32zm-10.586 0c.36.36.388.928.083 1.32l-.083.094L4.415 12l2.292 2.293c.36.36.388.928.083 1.32l-.083.094c-.36.36-.928.388-1.32.083l-.094-.083-3-3c-.36-.36-.388-.928-.083-1.32l.083-.094 3-3c.39-.39 1.024-.39 1.414 0zM12 9c1.657 0 3 1.343 3 3s-1.343 3-3 3-3-1.343-3-3 1.343-3 3-3zm0 2c-.552 0-1 .448-1 1s.448 1 1 1 1-.448 1-1-.448-1-1-1zm-.613-8.79c.392-.305.96-.278 1.32.083l3 3 .083.094c.305.392.278.96-.083 1.32l-.094.083c-.392.305-.96.278-1.32-.083L12 4.415 9.707 6.707l-.094.083c-.392.305-.96.278-1.32-.083-.39-.39-.39-1.024 0-1.414l3-3z"/>
        <path id="prefix__g" d="M12 3c4.97 0 9 4.03 9 9s-4.03 9-9 9-9-4.03-9-9 4.03-9 9-9zm0 2c-3.866 0-7 3.134-7 7s3.134 7 7 7 7-3.134 7-7c0-1.572-.518-3.024-1.394-4.192l-2.899 2.898c.188.392.293.83.293 1.294 0 1.657-1.343 3-3 3s-3-1.343-3-3 1.343-3 3-3c.463 0 .902.105 1.294.293l2.898-2.9C15.024 5.519 13.572 5 12 5zm0 6c-.552 0-1 .448-1 1s.448 1 1 1 1-.448 1-1-.448-1-1-1z"/>
        <path id="prefix__i" d="M19.9 2.997c-.153-.438-.46-.788-.865-.985-1.464-.713-3.106-.788-4.624-.21l-1.586.602L8.298.064c-.143-.075-.31-.084-.46-.027L5.135 1.065c-.204.077-.35.267-.38.491-.03.225.062.449.239.581l2.868 2.155-3.986 1.516-1.48-1.254c-.16-.135-.376-.173-.57-.1l-1.44.549c-.147.055-.265.17-.331.316-.066.148-.073.316-.02.469l.918 2.635c.3.858.9 1.542 1.692 1.928.791.386 1.68.426 2.5.114L8.657 9.13 7.9 12.237c-.054.22.013.452.174.605.11.103.25.158.394.158.067 0 .135-.012.2-.037l2.703-1.028c.15-.057.272-.176.336-.33l1.815-4.325L18.9 5.234c.865-.329 1.313-1.333.998-2.237zM6.577 1.82l1.425-.542 3.3 1.706-2.108.802-2.617-1.966zM18.5 4.084l-5.615 2.135c-.15.057-.272.176-.336.33l-1.815 4.325-1.425.542.757-3.107c.054-.22-.013-.452-.174-.605-.11-.103-.25-.158-.394-.158-.067 0-.135.012-.2.037L4.744 9.315c-.526.2-1.096.174-1.604-.074-.508-.247-.894-.686-1.085-1.237l-.718-2.06.579-.22 1.48 1.253c.16.135.375.173.569.1l10.847-4.125c1.224-.466 2.548-.405 3.728.17.12.059.212.163.258.294.094.27-.04.57-.298.668z"/>
        <path id="prefix__k" d="M18 3c1.657 0 3 1.343 3 3 0 1.306-.834 2.417-2 2.829v6.342c1.166.412 2 1.523 2 2.829 0 1.657-1.343 3-3 3-1.306 0-2.417-.834-2.829-2H8.829C8.417 20.167 7.306 21 6 21c-1.657 0-3-1.343-3-3 0-1.306.834-2.417 2-2.829V8.829C3.833 8.417 3 7.306 3 6c0-1.657 1.343-3 3-3 1.306 0 2.417.834 2.829 2h6.342c.412-1.166 1.523-2 2.829-2zm0 14c-.552 0-1 .448-1 1s.448 1 1 1 1-.448 1-1-.448-1-1-1zM6 17c-.552 0-1 .448-1 1s.448 1 1 1 1-.448 1-1-.448-1-1-1zm9.171-10H8.829c-.301.853-.976 1.528-1.828 1.829v6.342c.852.301 1.527.976 1.828 1.828h6.342c.301-.852.976-1.527 1.828-1.828V8.829c-.852-.301-1.527-.976-1.828-1.828zM6 5c-.552 0-1 .448-1 1s.448 1 1 1 1-.448 1-1-.448-1-1-1zm12 0c-.552 0-1 .448-1 1s.448 1 1 1 1-.448 1-1-.448-1-1-1z"/>
    </defs>
    <g fill="none" fill-rule="evenodd">
        <mask id="prefix__b" fill="#fff">
            <use xlink:href="#prefix__a"/>
        </mask>
        <use fill="#979797" fill-rule="nonzero" xlink:href="#prefix__a"/>
        <g fill="#006594" mask="url(#prefix__b)">
            <path d="M0 0H24V24H0z"/>
        </g>
        <g transform="translate(165)">
            <mask id="prefix__d" fill="#fff">
                <use xlink:href="#prefix__c"/>
            </mask>
            <use fill="#006594" fill-rule="nonzero" xlink:href="#prefix__c"/>
            <g fill="#006594" mask="url(#prefix__d)">
                <path d="M0 0H24V24H0z"/>
            </g>
        </g>
        <g transform="translate(55)">
            <mask id="prefix__f" fill="#fff">
                <use xlink:href="#prefix__e"/>
            </mask>
            <use fill="#979797" fill-rule="nonzero" xlink:href="#prefix__e"/>
            <g fill="#006594" mask="url(#prefix__f)">
                <path d="M0 0H24V24H0z"/>
            </g>
        </g>
        <g transform="translate(220)">
            <mask id="prefix__h" fill="#fff">
                <use xlink:href="#prefix__g"/>
            </mask>
            <use fill="#006594" fill-rule="nonzero" xlink:href="#prefix__g"/>
            <g fill="#006594" mask="url(#prefix__h)">
                <path d="M0 0H24V24H0z"/>
            </g>
        </g>
        <g>
            <g transform="translate(110) translate(2 5)">
                <mask id="prefix__j" fill="#fff">
                    <use xlink:href="#prefix__i"/>
                </mask>
                <use fill="#006594" fill-rule="nonzero" xlink:href="#prefix__i"/>
                <g fill="#006594" mask="url(#prefix__j)">
                    <path d="M0 0H24V24H0z" transform="translate(-2 -5)"/>
                </g>
            </g>
        </g>
        <g transform="translate(275)">
            <mask id="prefix__l" fill="#fff">
                <use xlink:href="#prefix__k"/>
            </mask>
            <use fill="#006594" fill-rule="nonzero" xlink:href="#prefix__k"/>
            <g fill="#006594" mask="url(#prefix__l)">
                <path d="M0 0H24V24H0z"/>
            </g>
        </g>
    </g>
</svg>
