<svg xmlns="http://www.w3.org/2000/svg" width="12" height="12" viewBox="0 0 12 12">
    <g fill="none" fill-rule="evenodd">
        <path d="M0 0H12V12H0z" transform="matrix(-1 0 0 1 12 0)"/>
        <path fill="#000" fill-opacity=".45" d="M6.505 10.895c-.174.193-.47.208-.662.035L.78 6.372C.673 6.275.62 6.14.625 6.006c-.005-.134.047-.27.155-.366L5.843 1.08c.192-.173.488-.157.662.035.173.192.157.489-.035.662L1.775 6.006l4.695 4.227c.192.174.208.47.035.662z" transform="matrix(-1 0 0 1 12 0)"/>
        <path fill="#000" fill-opacity=".45" d="M10.505 10.895c-.174.193-.47.208-.662.035L4.78 6.372c-.107-.097-.16-.232-.155-.366-.005-.134.047-.27.155-.366L9.843 1.08c.192-.173.488-.157.662.035.173.192.157.489-.035.662L5.775 6.006l4.695 4.227c.192.174.208.47.035.662z" transform="matrix(-1 0 0 1 12 0)"/>
    </g>
</svg>
