<svg xmlns="http://www.w3.org/2000/svg" xmlns:xlink="http://www.w3.org/1999/xlink" width="16" height="16" viewBox="0 0 16 16">
    <defs>
        <path id="8pyf45auda" d="M15.458 8.002c-.31-.024-.58.209-.603.518-.13 1.725-.9 3.327-2.17 4.51-1.276 1.19-2.94 1.845-4.685 1.845-1.36 0-2.673-.395-3.8-1.145-.99-.658-1.79-1.553-2.325-2.605h1.563c.31 0 .562-.252.562-.563 0-.31-.252-.562-.563-.562H.563c-.311 0-.563.252-.563.563v2.874c0 .311.252.563.563.563.31 0 .562-.252.562-.563v-1.343c.61 1.026 1.447 1.904 2.452 2.573C4.889 15.54 6.417 16 8 16c2.031 0 3.969-.762 5.453-2.147 1.478-1.376 2.374-3.24 2.524-5.248.023-.31-.208-.58-.52-.603zM15.438 2c-.311 0-.563.252-.563.563v1.343c-.61-1.026-1.447-1.904-2.453-2.573C11.11.46 9.582 0 8 0 5.969 0 4.031.762 2.547 2.147 1.069 3.523.173 5.387.022 7.395c-.024.31.21.58.519.603C.555 8 .569 8 .583 8c.292 0 .537-.225.56-.52.13-1.725.9-3.327 2.17-4.51C4.59 1.78 6.255 1.125 8 1.125c1.36 0 2.673.395 3.8 1.145.99.658 1.79 1.553 2.325 2.605h-1.563c-.31 0-.562.252-.562.563 0 .31.252.562.563.562h2.874c.311 0 .563-.252.563-.563V2.563c0-.31-.252-.562-.563-.562z"/>
    </defs>
    <g fill="none" fill-rule="evenodd">
        <mask id="9jlivzy8lb" fill="#fff">
            <use xlink:href="#8pyf45auda"/>
        </mask>
        <g fill="#A9AAAD" mask="url(#9jlivzy8lb)">
            <path d="M0 0H16V16H0z"/>
        </g>
    </g>
</svg>
