<svg xmlns="http://www.w3.org/2000/svg" xmlns:xlink="http://www.w3.org/1999/xlink" width="24" height="24" viewBox="0 0 24 24">
    <defs>
        <path id="prefix__a" d="M22.754 21.559l-4.821-4.82C19.224 15.182 20 13.183 20 11c0-4.971-4.029-9-9-9s-9 4.029-9 9 4.029 9 9 9c2.182 0 4.181-.776 5.74-2.067l4.82 4.82c.165.165.38.247.599.247.218 0 .43-.082.597-.246.326-.33.326-.865-.002-1.195zm-8.909-3.82c-.9.381-1.856.573-2.845.573-.99 0-1.945-.192-2.845-.574-.87-.368-1.653-.895-2.325-1.568-.673-.672-1.2-1.455-1.568-2.325-.382-.9-.574-1.856-.574-2.845 0-.99.192-1.945.574-2.845.368-.87.895-1.653 1.568-2.325.672-.673 1.455-1.2 2.325-1.568.9-.382 1.856-.574 2.845-.574.99 0 1.945.192 2.845.574.87.368 1.653.895 2.325 1.568.673.672 1.2 1.455 1.568 2.325.382.9.575 1.856.575 2.845 0 .99-.193 1.945-.575 2.845-.368.87-.895 1.653-1.568 2.325-.672.673-1.453 1.2-2.325 1.568z"/>
    </defs>
    <g fill="none" fill-rule="evenodd">
        <mask id="prefix__b" fill="#fff">
            <use xlink:href="#prefix__a"/>
        </mask>
        <g fill="#292A2C" mask="url(#prefix__b)">
            <path d="M0 0H24V24H0z"/>
        </g>
    </g>
</svg>
