<svg xmlns="http://www.w3.org/2000/svg" xmlns:xlink="http://www.w3.org/1999/xlink" width="24" height="24" viewBox="0 0 24 24">
    <defs>
        <path id="prefix__a" d="M11.046 3.083c.597-.162 1.223-.084 1.762.216.36.202.66.495.866.848l8.338 14.318c.305.525.384 1.138.221 1.722-.163.585-.55 1.073-1.09 1.374-.35.195-.747.298-1.149.298H3.32C2.04 21.86 1 20.841 1 19.588c0-.394.105-.783.305-1.123L9.643 4.149c.307-.528.806-.906 1.403-1.066zm.615 1.434c-.07 0-.138.009-.207.028-.2.052-.365.178-.468.355L2.648 19.216c-.067.113-.101.244-.101.374 0 .418.346.757.773.757h16.676c.134 0 .267-.034.383-.099.18-.1.31-.263.363-.458.054-.196.028-.4-.073-.577L12.33 4.898l-.057-.084c-.063-.08-.14-.147-.231-.198-.118-.065-.25-.099-.382-.099zm-.005 12.345c.475 0 .86.376.86.841v.253c0 .464-.385.84-.86.84s-.86-.376-.86-.84v-.253c0-.465.385-.841.86-.841zm0-8.666c.475 0 .86.376.86.841v5.637c0 .465-.385.842-.86.842s-.86-.377-.86-.842V9.037c0-.465.385-.841.86-.841z"/>
    </defs>
    <g fill="none" fill-rule="evenodd">
        <mask id="prefix__b" fill="#fff">
            <use xlink:href="#prefix__a"/>
        </mask>
        <g fill="#006594" mask="url(#prefix__b)">
            <path d="M0 0H24V24H0z"/>
        </g>
    </g>
</svg>
