<svg xmlns="http://www.w3.org/2000/svg" xmlns:xlink="http://www.w3.org/1999/xlink" width="16" height="16" viewBox="0 0 16 16">
    <defs>
        <path id="prefix__a" d="M11.345 8.808H4.653c-.308 0-.557-.25-.557-.56 0-.308.249-.558.557-.558h6.694c.308 0 .557.25.557.559-.001.309-.25.559-.559.559zm0-3.027H4.653c-.308 0-.557-.25-.557-.559 0-.309.249-.559.557-.559h6.694c.308 0 .557.25.557.56-.001.308-.25.558-.559.558zm3.371 8.265h-2.058v.441c0 .31-.25.56-.558.56-.308 0-.557-.25-.557-.56v-.44H4.455v.44c0 .31-.249.56-.557.56-.308 0-.557-.25-.557-.56v-.44H1.282C.573 14.046 0 13.47 0 12.76V2.619c0-.71.573-1.286 1.282-1.286h13.436c.709 0 1.282.575 1.282 1.286V12.76c-.002.708-.575 1.285-1.284 1.285zM1.282 12.761h2.06v-.29c0-.309.25-.558.558-.558.308 0 .557.25.557.558v.29h7.088v-.29c0-.309.249-.558.557-.558.308 0 .557.25.557.558v.29h2.06v-1.752H1.283v1.752zM14.716 2.619H1.282v7.278h13.436V2.619h-.002z"/>
    </defs>
    <g fill="none" fill-rule="evenodd">
        <mask id="prefix__b" fill="#fff">
            <use xlink:href="#prefix__a"/>
        </mask>
        <g fill="#049BFA" mask="url(#prefix__b)">
            <path d="M0 0H16V16H0z"/>
        </g>
    </g>
</svg>
