<svg xmlns="http://www.w3.org/2000/svg" xmlns:xlink="http://www.w3.org/1999/xlink" width="578" height="300" viewBox="0 0 578 300">
    <defs>
        <path id="prefix__a" d="M12.719 4.06v13.445c0 .003.004.005.004.003l4.875-5.072c.394-.41 1.048-.424 1.458-.028.41.394.424 1.047.028 1.458L12.45 20.77c-.194.202-.464.317-.743.317-.281 0-.548-.115-.743-.317l-6.675-6.942c-.192-.2-.288-.457-.288-.715 0-.272.105-.541.316-.743.41-.393 1.064-.382 1.458.028l4.875 5.072c.003.003.005 0 .005-.002V4.036c0-.548.429-.996.968-1.029.6-.035 1.097.455 1.097 1.052z"/>
        <path id="prefix__c" d="M20.993 7.034c0 .225-.075.452-.225.642l-7.99 9.933c-.194.241-.487.382-.8.382-.308 0-.604-.141-.796-.382L3.234 7.718c-.354-.44-.283-1.085.157-1.44.441-.353 1.086-.283 1.44.158l7.15 8.897 7.19-8.942c.355-.44 1-.51 1.44-.157.25.204.382.5.382.8z"/>
        <path id="prefix__e" d="M12 24c-1.62 0-3.192-.316-4.671-.942-1.43-.605-2.712-1.472-3.813-2.574-1.102-1.101-1.97-2.383-2.574-3.813C.316 15.192 0 13.62 0 12c0-.466.377-.844.844-.844.466 0 .844.378.844.844 0 1.392.271 2.742.81 4.015.52 1.228 1.264 2.332 2.21 3.279.947.947 2.051 1.692 3.28 2.21 1.27.537 2.62.808 4.012.808 1.392 0 2.742-.271 4.015-.81 1.228-.52 2.332-1.264 3.279-2.21.947-.947 1.692-2.051 2.21-3.28.537-1.27.808-2.62.808-4.012 0-1.392-.271-2.742-.81-4.015-.52-1.228-1.264-2.33-2.21-3.279-.947-.947-2.051-1.692-3.28-2.21-1.27-.537-2.62-.808-4.012-.808-.466 0-.844-.378-.844-.844 0-.467.378-.844.844-.844 1.62 0 3.192.316 4.671.942 1.43.605 2.712 1.472 3.813 2.574 1.102 1.101 1.967 2.386 2.571 3.813.626 1.479.943 3.051.943 4.671s-.317 3.192-.943 4.671c-.602 1.43-1.47 2.712-2.57 3.813-1.102 1.102-2.387 1.967-3.814 2.571C15.192 23.684 13.62 24 12 24z"/>
        <path id="prefix__g" d="M19.554 3c.8 0 1.446.647 1.446 1.446v15.108c0 .8-.647 1.446-1.446 1.446H4.446C3.646 21 3 20.353 3 19.554V4.446C3 3.646 3.647 3 4.446 3zm0 1.446H4.446v15.108h15.108V4.446zM16.42 15.134c.4 0 .723.323.723.723 0 .4-.324.723-.723.723h-6.268c-.4 0-.723-.323-.723-.723 0-.4.323-.723.723-.723zm-8.84 0c.4 0 .724.324.724.723 0 .4-.324.723-.724.723-.4 0-.723-.323-.723-.723 0-.4.324-.723.723-.723zm8.84-3.857c.4 0 .723.323.723.723 0 .4-.324.723-.723.723h-6.268c-.4 0-.723-.323-.723-.723 0-.4.323-.723.723-.723zm-8.84 0c.4 0 .724.324.724.723 0 .4-.324.723-.724.723-.4 0-.723-.324-.723-.723 0-.4.324-.723.723-.723zm8.84-3.857c.4 0 .723.323.723.723 0 .4-.324.723-.723.723h-6.268c-.4 0-.723-.323-.723-.723 0-.4.323-.723.723-.723zm-8.84 0c.4 0 .724.323.724.723 0 .4-.324.723-.724.723-.4 0-.723-.324-.723-.723 0-.4.324-.723.723-.723z"/>
        <path id="prefix__i" d="M17.522 7.073L11.01.5c-.106-.105-.22-.194-.345-.27-.032-.018-.065-.037-.1-.053-.021-.012-.045-.021-.066-.03C10.29.051 10.057 0 9.82 0H1.734C.802 0 .024.755.024 1.688v20.625c0 .932.778 1.687 1.71 1.687h14.602c.933 0 1.664-.755 1.664-1.688V8.262c0-.446-.164-.872-.478-1.189zm-6.834-4.486l4.706 4.726h-4.707V2.588zm5.624 19.726H1.711V1.688H9v5.625C9 8.245 9.778 9 10.71 9h5.602v13.313zm-5.601-10.97c0-.466-.377-.843-.844-.843h-6c-.466 0-.844.377-.844.844 0 .466.378.844.844.844h6c.467 0 .844-.378.844-.844zm4.5 3.75c0-.466-.377-.843-.844-.843h-10.5c-.466 0-.844.377-.844.844 0 .466.378.844.844.844h10.5c.467 0 .844-.378.844-.844zm-3 3.75c0-.466-.377-.843-.844-.843h-7.5c-.466 0-.844.377-.844.844 0 .466.378.843.844.843h7.5c.467 0 .844-.377.844-.843z"/>
        <path id="prefix__k" d="M12 0C5.372 0 0 5.372 0 12s5.372 12 12 12 12-5.372 12-12S18.628 0 12 0zm7.291 19.291c-.946.947-2.05 1.693-3.279 2.21-1.27.54-2.62.811-4.012.811-1.392 0-2.742-.271-4.013-.808-1.228-.52-2.33-1.263-3.278-2.21-.947-.947-1.693-2.051-2.21-3.28-.54-1.272-.812-2.622-.812-4.014 0-1.392.272-2.742.81-4.013.52-1.228 1.262-2.33 2.21-3.278.946-.947 2.05-1.693 3.278-2.21 1.273-.54 2.623-.812 4.015-.812 1.392 0 2.742.272 4.012.81 1.229.52 2.33 1.262 3.28 2.21.946.946 1.692 2.05 2.21 3.278.539 1.273.81 2.623.81 4.015 0 1.392-.271 2.742-.808 4.012-.52 1.229-1.263 2.333-2.213 3.28zm-2.135-8.123h-4.3v-4.3c0-.467-.378-.845-.844-.845-.467 0-.844.378-.844.844v4.301H6.844c-.467 0-.844.377-.844.844 0 .466.377.843.844.843h4.324v4.278c0 .466.377.844.844.844.466 0 .843-.378.843-.844v-4.278h4.301c.467 0 .844-.377.844-.843 0-.467-.377-.844-.844-.844z"/>
        <path id="prefix__m" d="M11.45 1.737c.156-.157.365-.237.573-.237.209 0 .415.08.575.237l3.651 3.654c.317.316.317.83 0 1.146-.152.152-.356.236-.572.236-.215 0-.42-.084-.572-.236l-2.27-2.271v13.542c0 .447-.364.81-.812.81-.447 0-.81-.363-.81-.81V4.266L8.94 6.536c-.316.317-.83.317-1.143 0-.317-.316-.317-.829-.003-1.145l3.654-3.654zm10.24 13.272c-.449 0-.812.364-.812.811v4.58c0 .265-.215.483-.483.483H3.602c-.264 0-.482-.216-.482-.483v-4.582c0-.448-.364-.811-.811-.811-.448 0-.809.366-.809.811v5.224c0 .804.654 1.456 1.455 1.456h18.09c.803 0 1.455-.654 1.455-1.456v-5.224c0-.445-.363-.809-.81-.809z"/>
        <path id="prefix__o" d="M12 0C5.372 0 0 5.372 0 12s5.372 12 12 12 12-5.372 12-12S18.628 0 12 0zm7.291 19.291c-.946.947-2.05 1.693-3.279 2.21-1.27.54-2.62.811-4.012.811-1.392 0-2.742-.271-4.013-.808-1.228-.52-2.33-1.263-3.278-2.21-.947-.947-1.693-2.051-2.21-3.28-.54-1.272-.812-2.622-.812-4.014 0-1.392.272-2.742.81-4.013.52-1.228 1.262-2.33 2.21-3.278.946-.947 2.05-1.693 3.278-2.21 1.273-.54 2.623-.812 4.015-.812 1.392 0 2.742.272 4.012.81 1.229.52 2.33 1.262 3.28 2.21.946.946 1.692 2.05 2.21 3.278.539 1.273.81 2.623.81 4.015 0 1.392-.271 2.742-.808 4.012-.52 1.229-1.263 2.333-2.213 3.28zM1 11h4c.552 0 1 .448 1 1s-.448 1-1 1H1c-.552 0-1-.448-1-1s.448-1 1-1zM12 0c.552 0 1 .448 1 1v4c0 .552-.448 1-1 1s-1-.448-1-1V1c0-.552.448-1 1-1zm0 18c.552 0 1 .448 1 1v4c0 .552-.448 1-1 1s-1-.448-1-1v-4c0-.552.448-1 1-1zm7-7h4c.552 0 1 .448 1 1s-.448 1-1 1h-4c-.552 0-1-.448-1-1s.448-1 1-1zM1 11h4c.552 0 1 .448 1 1s-.448 1-1 1H1c-.552 0-1-.448-1-1s.448-1 1-1zM12 0c.552 0 1 .448 1 1v4c0 .552-.448 1-1 1s-1-.448-1-1V1c0-.552.448-1 1-1zm0 18c.552 0 1 .448 1 1v4c0 .552-.448 1-1 1s-1-.448-1-1v-4c0-.552.448-1 1-1zm0-9c1.657 0 3 1.343 3 3s-1.343 3-3 3-3-1.343-3-3 1.343-3 3-3zm11 2c.552 0 1 .448 1 1s-.448 1-1 1h-4c-.552 0-1-.448-1-1s.448-1 1-1h4z"/>
        <path id="prefix__q" d="M19.25 18.875h-.583V9.25c0-3.536-2.588-6.447-5.917-6.832v-.645c0-.427-.335-.773-.75-.773s-.75.346-.75.773v.645c-3.33.385-5.917 3.296-5.917 6.832v9.625H4.75c-.415 0-.75.346-.75.773 0 .428.335.774.75.774h5.75v1.031c0 .855.67 1.547 1.5 1.547s1.5-.692 1.5-1.547v-1.031h5.75c.415 0 .75-.346.75-.774 0-.427-.335-.773-.75-.773zM17 19H7V9.345C7 6.392 9.238 4 12 4s5 2.392 5 5.345V19z"/>
        <path id="prefix__s" d="M11.046 3.083c.597-.162 1.223-.084 1.762.216.36.202.66.495.866.848l8.338 14.318c.305.525.384 1.138.221 1.722-.163.585-.55 1.073-1.09 1.374-.35.195-.747.298-1.149.298H3.32C2.04 21.86 1 20.841 1 19.588c0-.394.105-.783.305-1.123L9.643 4.149c.307-.528.806-.906 1.403-1.066zm.615 1.434c-.07 0-.138.009-.207.028-.2.052-.365.178-.468.355L2.648 19.216c-.067.113-.101.244-.101.374 0 .418.346.757.773.757h16.676c.134 0 .267-.034.383-.099.18-.1.31-.263.363-.458.054-.196.028-.4-.073-.577L12.33 4.898l-.057-.084c-.063-.08-.14-.147-.231-.198-.118-.065-.25-.099-.382-.099zm-.005 12.345c.475 0 .86.376.86.841v.253c0 .464-.385.84-.86.84s-.86-.376-.86-.84v-.253c0-.465.385-.841.86-.841zm0-8.666c.475 0 .86.376.86.841v5.637c0 .465-.385.842-.86.842s-.86-.377-.86-.842V9.037c0-.465.385-.841.86-.841z"/>
        <path id="prefix__u" d="M18.349 16.632c.36 0 .651.294.651.658 0 .364-.291.658-.651.658H5.65c-.36 0-.651-.294-.651-.658 0-.364.291-.658.651-.658zm0-5.316c.36 0 .651.294.651.658 0 .364-.291.658-.651.658H5.65c-.36 0-.651-.294-.651-.658 0-.364.291-.658.651-.658zm0-5.316c.36 0 .651.294.651.658 0 .364-.291.658-.651.658H5.65c-.36 0-.651-.294-.651-.658C5 6.294 5.291 6 5.651 6z"/>
        <path id="prefix__w" d="M16.81 7.177c-.331-.329-.865-.329-1.194.002L12 10.805 8.384 7.179c-.329-.33-.863-.33-1.193-.002-.33.328-.33.862-.003 1.193L10.81 12l-3.62 3.63c-.329.33-.329.865.002 1.193.164.165.38.247.595.247.216 0 .434-.082.598-.249L12 13.195l3.616 3.628c.164.167.382.249.598.249.216 0 .431-.082.595-.246.33-.328.33-.863.003-1.193L13.19 12l3.618-3.63c.33-.33.33-.865 0-1.193zM12 0C5.372 0 0 5.372 0 12s5.372 12 12 12 12-5.372 12-12S18.628 0 12 0zm7.291 19.291c-.946.947-2.05 1.693-3.279 2.21-1.27.54-2.62.811-4.012.811-1.392 0-2.742-.271-4.013-.808-1.228-.52-2.33-1.263-3.278-2.21-.947-.947-1.693-2.051-2.21-3.28-.54-1.272-.812-2.622-.812-4.014 0-1.392.272-2.742.81-4.013.52-1.228 1.262-2.33 2.21-3.278.946-.947 2.05-1.693 3.278-2.21 1.273-.54 2.623-.812 4.015-.812 1.392 0 2.742.272 4.012.81 1.229.52 2.33 1.262 3.28 2.21.946.946 1.692 2.05 2.21 3.278.539 1.273.81 2.623.81 4.015 0 1.392-.271 2.742-.808 4.012-.52 1.229-1.263 2.333-2.213 3.28z"/>
        <path id="prefix__y" d="M14.84 17.897h-1.996V8.426c0-.467-.378-.844-.844-.844H9.75c-.466 0-.844.377-.844.844 0 .466.378.844.844.844h1.406v8.627H9.16c-.466 0-.843.377-.843.844 0 .466.377.843.843.843h5.682c.466 0 .843-.377.843-.843 0-.467-.377-.844-.843-.844zM11.157 5.262c0 .466.378.843.844.843.466 0 .844-.377.844-.843 0-.466-.378-.844-.844-.844-.466 0-.844.378-.844.844z"/>
        <path id="prefix__A" d="M22.852 10.254l-.092-.579-1.768-.59c-.154-.478-.347-.946-.576-1.392l.834-1.667-.342-.477c-.695-.948-1.525-1.778-2.468-2.463l-.476-.342-1.667.834c-.448-.229-.914-.422-1.392-.576l-.588-1.763-.574-.09C13.103 1.05 12.55 1 12 1c-.536 0-1.09.048-1.744.152l-.58.092-.588 1.77c-.487.159-.955.352-1.392.574L6.032 2.75l-.475.342c-.946.685-1.775 1.513-2.465 2.463l-.343.477.835 1.667c-.227.446-.42.911-.574 1.389l-1.769.586-.091.579C1.048 10.893 1 11.462 1 12c0 .54.048 1.11.15 1.744l.091.579 1.769.59c.154.478.347.946.576 1.392l-.83 1.662.343.472c.357.497.726.934 1.126 1.336.374.377.811.746 1.335 1.13l.475.342 1.664-.835c.45.23.915.425 1.392.577l.59 1.77.578.091c.635.102 1.204.15 1.742.15s1.107-.048 1.744-.15l.58-.091.588-1.77c.473-.155.938-.348 1.39-.574l1.666.834.476-.342c.518-.374.955-.743 1.334-1.13.393-.392.76-.831 1.126-1.335l.343-.478-.835-1.666c.23-.446.422-.912.577-1.392l1.768-.59.092-.58c.101-.634.15-1.203.15-1.74.007-.534-.042-1.105-.148-1.742zm-1.58 1.727v.012c0 .325-.022.656-.063 1.01l-.854.285-.755.256-.234.76c-.133.438-.309.865-.523 1.27l-.372.702.758 1.512c-.222.28-.442.528-.671.757l-.005.005c-.224.227-.473.446-.753.666l-1.507-.755-.7.364c-.413.215-.847.393-1.288.533l-.755.237-.246.747-.285.854c-.352.043-.685.063-1.01.063-.324 0-.657-.022-1.012-.063l-.284-.854-.249-.755-.76-.234c-.449-.137-.876-.313-1.271-.523l-.705-.367-.711.355-.804.4c-.28-.222-.528-.441-.757-.67-.234-.234-.454-.482-.67-.757l.752-1.508-.367-.7c-.22-.419-.398-.848-.528-1.277l-.234-.76-1.607-.533c-.043-.352-.063-.685-.063-1.01 0-.326.022-.657.063-1.011l1.602-.533.234-.757c.135-.437.314-.869.528-1.283l.367-.7-.352-.707-.4-.803c.422-.525.902-1.005 1.428-1.427l1.51.755.702-.37c.405-.212.837-.39 1.283-.53l.755-.236.251-.75.285-.854c.364-.041.695-.063 1.008-.063.324 0 .656.022 1.009.063l.535 1.599.755.234c.44.137.871.316 1.284.528l.7.366 1.507-.754c.526.422 1.009.902 1.436 1.43l-.753 1.507.362.697c.214.415.395.849.533 1.29l.236.755.75.251.855.285c.045.361.065.687.06.996zm-9.266-4.185C9.687 7.796 7.8 9.682 7.8 12c0 2.318 1.886 4.204 4.205 4.204 2.318 0 4.205-1.886 4.205-4.204 0-2.318-1.887-4.204-4.205-4.204zm1.744 5.948c-.466.465-1.086.723-1.744.723-.659 0-1.279-.255-1.745-.723-.465-.466-.723-1.086-.723-1.744 0-.658.255-1.278.723-1.744.466-.465 1.086-.723 1.745-.723.658 0 1.278.255 1.744.723.465.468.724 1.086.724 1.744 0 .658-.259 1.278-.724 1.744z"/>
        <path id="prefix__C" d="M4.054 10.654H17.5c.003 0 .005-.005.003-.005L12.43 5.774c-.41-.393-.425-1.047-.028-1.457.393-.41 1.047-.425 1.457-.029l6.907 6.638c.202.195.317.464.317.743 0 .281-.115.548-.317.743l-6.944 6.673c-.2.192-.457.288-.715.288-.272 0-.541-.106-.743-.317-.394-.41-.382-1.064.028-1.457l5.072-4.875c.002-.003 0-.005-.002-.005H4.03c-.549 0-.996-.429-1.03-.968-.034-.6.455-1.097 1.053-1.097z"/>
        <path id="prefix__E" d="M21.656 20.813H2.344c-.467 0-.844.377-.844.843 0 .467.377.844.844.844h19.312c.467 0 .844-.377.844-.844 0-.466-.377-.843-.844-.843zM6.938 18.047l5.519-2.337c.09-.037.169-.091.24-.16l9.308-9.309c.66-.658.664-1.732.005-2.39l-1.858-1.859c-.659-.658-1.732-.654-2.391.005l-9.31 9.31c-.067.067-.121.15-.159.238l-2.339 5.518c-.131.309-.04.62.16.822.199.202.513.293.824.162zM18.953 3.19l.005-.005 1.856 1.856-.005.005L19.357 6.5l-1.856-1.856 1.453-1.453zm-9.18 9.18l6.534-6.534 1.856 1.856-6.534 6.535-3.22 1.364 1.363-3.22z"/>
        <path id="prefix__G" d="M18.349 11.333H5.65c-.36 0-.651.294-.651.658 0 .364.291.658.651.658H18.35c.36 0 .651-.294.651-.658 0-.364-.291-.658-.651-.658z"/>
        <path id="prefix__I" d="M12 0C5.372 0 0 5.372 0 12s5.372 12 12 12 12-5.372 12-12S18.628 0 12 0zm7.291 19.291c-.946.947-2.05 1.693-3.279 2.21-1.27.54-2.62.811-4.012.811-1.392 0-2.742-.271-4.013-.808-1.228-.52-2.33-1.263-3.278-2.21-.947-.947-1.693-2.051-2.21-3.28-.54-1.272-.812-2.622-.812-4.014 0-1.392.272-2.742.81-4.013.52-1.228 1.262-2.33 2.21-3.278.946-.947 2.05-1.693 3.278-2.21 1.273-.54 2.623-.812 4.015-.812 1.392 0 2.742.272 4.012.81 1.229.52 2.33 1.262 3.28 2.21.946.946 1.692 2.05 2.21 3.278.539 1.273.81 2.623.81 4.015 0 1.392-.271 2.742-.808 4.012-.52 1.229-1.263 2.333-2.213 3.28zm-2.111-7.479h-4.336V6.189c0-.467-.378-.844-.844-.844-.466 0-.844.377-.844.843v5.625c0 .933.755 1.688 1.688 1.688h4.336c.466 0 .843-.377.843-.844 0-.466-.377-.844-.843-.844z"/>
        <path id="prefix__K" d="M23.26 13.91l-9.966 9.592c-.734.664-1.851.664-2.585 0L.739 13.91c-.396-.356-.426-.964-.07-1.36.357-.397.968-.427 1.361-.07L12 22.07l9.97-9.592c.396-.356 1.004-.326 1.36.07.357.397.327 1.005-.07 1.36zm-2.662-3.557c-.533 0-.964-.432-.964-.965v-7.42h-3.83v6.43c0 1.065-.863 1.928-1.929 1.928h-3.75c-1.066 0-1.929-.863-1.929-1.929V1.97h-3.83v7.42c0 .532-.431.964-.964.964-.533 0-.965-.432-.965-.965v-7.42C2.438.904 3.3.04 4.367.04h15.267c1.066 0 1.928.863 1.928 1.929v7.42c0 .532-.43.964-.964.964zM10.125 8.397h3.75V1.97h-3.75v6.428z"/>
        <path id="prefix__M" d="M15.255 3.021H4.71c-.933 0-1.688.755-1.688 1.688V19.31c0 .933.755 1.688 1.688 1.688H19.31c.933 0 1.688-.755 1.688-1.688V8.76l-5.743-5.739zM7.73 4.71h5.086v4.825c0 .467-.378.844-.844.844H8.573c-.466 0-.843-.377-.843-.844V4.71zM19.31 19.31H4.71V4.71h1.333v4.825c0 1.397 1.135 2.532 2.531 2.532h3.399c1.397 0 2.531-1.135 2.531-2.532V4.71h.054l4.75 4.75v9.851h.003zm-8.3-10.62c.467 0 .845-.377.845-.843V6.839c0-.466-.378-.844-.844-.844-.466 0-.844.378-.844.844v1.008c0 .466.378.844.844.844z"/>
        <path id="prefix__O" d="M21.654 4.572c.43.38.472 1.036.092 1.467l-.014.016-12.77 13.889c-.149.16-.334.266-.531.316-.384.113-.815.007-1.104-.306L2.285 14.47l-.014-.016c-.38-.43-.339-1.087.092-1.467.442-.39 1.115-.355 1.514.08l4.262 4.635 12-13.05c.4-.435 1.073-.47 1.515-.08z"/>
        <path id="prefix__Q" d="M12 1.688c1.392 0 2.742.271 4.012.808 1.229.52 2.33 1.263 3.28 2.21.946.947 1.692 2.051 2.21 3.28.539 1.272.81 2.622.81 4.014 0 1.392-.271 2.742-.808 4.012-.52 1.229-1.263 2.33-2.21 3.28-.947.946-2.051 1.692-3.28 2.21-1.272.539-2.622.81-4.014.81-1.392 0-2.742-.271-4.013-.808-1.228-.52-2.33-1.263-3.278-2.21-.947-.947-1.693-2.051-2.21-3.28-.54-1.272-.812-2.622-.812-4.014 0-1.392.272-2.742.81-4.013.52-1.228 1.262-2.33 2.21-3.278.946-.947 2.05-1.693 3.278-2.21 1.273-.54 2.623-.812 4.015-.812zM12 0C5.372 0 0 5.372 0 12s5.372 12 12 12 12-5.372 12-12S18.628 0 12 0zm0 15c-.518 0-.938-.42-.938-.938V5.415c0-.518.42-.937.938-.937s.938.42.938.937v8.649c0 .517-.42.937-.938.937zm-1.055 2.555c0 .582.473 1.054 1.055 1.054s1.055-.472 1.055-1.054c0-.583-.473-1.055-1.055-1.055s-1.055.472-1.055 1.055z"/>
        <path id="prefix__S" d="M20.238 11.156h-7.465V3.88c0-.466-.377-.844-.843-.844-.467 0-.844.377-.844.844v7.277h-7.3c-.467 0-.845.378-.845.844 0 .466.378.844.844.844h7.3v7.3c0 .467.378.844.845.844.466 0 .843-.377.843-.843v-7.301h7.465c.467 0 .844-.378.844-.844 0-.466-.377-.844-.844-.844z"/>
        <path id="prefix__U" d="M12.5 2C18.3 2 23 6.811 23 12.747c0 3.474-1.61 6.564-4.108 8.526-.135.14-.322.227-.527.227-.408 0-.738-.338-.738-.756 0-.245.113-.464.291-.602.794-.62 1.489-1.364 2.05-2.212l-.905-.536c-.314-.184-.42-.596-.24-.917.18-.321.582-.43.896-.246l.906.536c.484-1.025.79-2.154.874-3.348h-1.042c-.363 0-.656-.3-.656-.672 0-.371.293-.672.656-.672h1.042c-.084-1.196-.39-2.332-.878-3.358l-.902.533c-.314.185-.716.076-.896-.246-.18-.32-.074-.732.24-.917l.9-.53c-.642-.966-1.456-1.8-2.4-2.455l-.523.928c-.18.321-.582.43-.896.246-.314-.185-.42-.596-.24-.918l.523-.927c-1-.496-2.106-.808-3.27-.895v1.067c0 .371-.294.671-.657.671-.363 0-.656-.3-.656-.671V3.536c-1.171.087-2.279.4-3.281.899l.52.923c.18.322.074.733-.24.918-.313.184-.715.075-.896-.246l-.519-.921c-.939.655-1.75 1.486-2.39 2.447l.9.531c.313.185.42.596.24.917-.181.322-.583.43-.897.246l-.902-.533c-.486 1.028-.794 2.162-.878 3.358h1.042c.363 0 .656.3.656.672 0 .372-.293.672-.656.672H3.501c.082 1.192.388 2.323.874 3.348l.906-.536c.314-.184.716-.075.896.246.18.321.074.733-.24.917l-.906.536c.548.827 1.224 1.56 2 2.164.217.132.363.373.363.65 0 .418-.33.756-.739.756-.17 0-.328-.06-.453-.16C3.65 19.384 2 16.263 2 12.747 2 6.811 6.7 2 12.5 2zm3.232 7.321c.285-.228.697-.176.92.116.224.292.173.714-.112.942l-2.59 2.074c.018.093.027.187.027.286 0 .835-.66 1.51-1.477 1.51-.816 0-1.477-.675-1.477-1.51 0-.836.66-1.512 1.477-1.512.234 0 .457.055.654.156z"/>
        <path id="prefix__W" d="M16.955 20.993c-.225 0-.453-.075-.642-.225l-9.933-7.99c-.242-.194-.382-.487-.382-.8 0-.308.14-.604.382-.796l9.89-7.948c.44-.354 1.085-.283 1.44.157.353.441.283 1.086-.158 1.44l-8.897 7.148 8.942 7.193c.44.354.51.998.157 1.439-.204.25-.5.382-.8.382z"/>
        <path id="prefix__Y" d="M23.187 12.002c-.464-.035-.87.314-.905.778-.195 2.588-1.35 4.99-3.253 6.765-1.915 1.785-4.411 2.767-7.029 2.767-2.04 0-4.01-.592-5.7-1.717-1.486-.987-2.684-2.33-3.487-3.907h2.343c.467 0 .844-.378.844-.844 0-.467-.377-.844-.844-.844H.844c-.467 0-.844.377-.844.844v4.312c0 .467.377.844.844.844.466 0 .844-.377.844-.844v-2.015c.916 1.54 2.17 2.857 3.677 3.86C7.334 23.309 9.625 24 12 24c3.047 0 5.953-1.144 8.18-3.22 2.217-2.065 3.56-4.861 3.785-7.873.035-.464-.312-.87-.778-.905zM23.157 3c-.467 0-.845.377-.845.844v2.015c-.916-1.54-2.17-2.857-3.68-3.86C16.667.691 14.373 0 12 0 8.953 0 6.047 1.144 3.82 3.22 1.603 5.285.26 8.081.033 11.093c-.035.464.314.87.778.905.021.002.042.002.063.002.439 0 .806-.338.842-.78.194-2.588 1.35-4.99 3.253-6.765C6.886 2.67 9.382 1.687 12 1.687c2.04 0 4.01.593 5.7 1.718 1.486.987 2.684 2.33 3.488 3.908h-2.344c-.467 0-.844.377-.844.843 0 .467.377.844.844.844h4.312c.467 0 .844-.377.844-.844V3.844c0-.467-.377-.844-.844-.844z"/>
        <path id="prefix__aa" d="M20.027 10.654H6.581c-.002 0-.004-.005-.002-.005l5.072-4.875c.41-.393.424-1.047.028-1.457-.394-.41-1.048-.425-1.458-.029l-6.905 6.636c-.201.194-.316.464-.316.743 0 .28.115.548.316.743l6.943 6.672c.199.192.457.289.714.289.272 0 .542-.106.743-.317.394-.41.382-1.064-.028-1.458l-5.072-4.875c-.002-.002 0-.004.003-.004H20.05c.548 0 .996-.43 1.029-.968.035-.598-.455-1.095-1.053-1.095z"/>
        <path id="prefix__ac" d="M11.45 18.382c.156.157.365.237.573.237.209 0 .415-.08.575-.237l3.654-3.654c.316-.316.316-.83 0-1.146-.153-.152-.357-.237-.572-.237-.216 0-.42.085-.572.237l-2.271 2.271V2.311c0-.448-.364-.811-.811-.811-.448 0-.811.363-.811.81v13.543l-2.271-2.271c-.317-.316-.83-.316-1.144 0-.316.316-.316.83-.002 1.146l3.651 3.654zm10.24-3.373c-.449 0-.812.364-.812.811v4.58c0 .265-.215.483-.483.483H3.602c-.264 0-.482-.216-.482-.483v-4.582c0-.448-.364-.811-.811-.811-.448 0-.809.366-.809.811v5.224c0 .804.654 1.456 1.455 1.456h18.09c.803 0 1.455-.654 1.455-1.456v-5.224c0-.445-.363-.809-.81-.809z"/>
        <path id="prefix__ae" d="M18.668 12.844H5.332c-.466 0-.844-.378-.844-.844 0-.466.378-.844.844-.844h13.336c.466 0 .844.378.844.844 0 .466-.378.844-.844.844z"/>
        <path id="prefix__ag" d="M12 1C5.924 1 1 5.924 1 12s4.924 11 11 11 11-4.924 11-11S18.076 1 12 1zm3.806 13.865c.26.26.26.682-.002.94-.13.13-.3.195-.471.195-.17 0-.343-.065-.473-.196L12 12.944l-2.86 2.86c-.13.131-.302.196-.473.196-.17 0-.341-.065-.47-.194-.262-.259-.262-.68-.003-.941L11.058 12 8.194 9.137c-.26-.26-.26-.682.002-.941.262-.26.684-.26.944.002l2.86 2.86 2.86-2.862c.26-.26.682-.26.944-.002.261.259.261.68.002.941l-2.864 2.866 2.864 2.864z"/>
        <path id="prefix__ai" d="M22.478 9.75V6.93c0-.931-.754-1.685-1.686-1.685H11.45l-.586-1.824c-.222-.7-.87-1.173-1.606-1.173H1.686C.754 2.248 0 3.002 0 3.934V20.05c0 .082.007.164.019.243 0 .003 0 .007.002.01.005.023.007.047.012.07l.004.019.015.058c.002.012.007.024.009.035l.007.029c.007.025.014.049.023.072v.002c.087.253.232.478.422.66l.004.005c.02.017.036.033.054.05.01.007.019.016.026.023l.026.021.047.038c.004.002.009.007.014.009l.058.042c.003 0 .003.002.005.002.22.148.478.249.76.277.006 0 .008 0 .013.002.025.002.049.005.075.005h.014l.077.002h18.45c.773 0 1.448-.527 1.637-1.276l2.154-8.617c.249-.997-.451-1.971-1.449-2.081zM1.686 3.934h7.567l.965 2.997h10.574v2.81H3.84c-.773 0-1.447.526-1.637 1.276l-.517 2.079V3.934zm18.45 16.109H1.687l2.154-8.617h18.45l-2.153 8.617z"/>
        <path id="prefix__ak" d="M7.045 20.993c.225 0 .453-.075.643-.225l9.932-7.99c.242-.194.382-.487.382-.8 0-.308-.14-.604-.382-.796L7.73 3.234c-.44-.354-1.085-.283-1.44.157-.353.441-.283 1.086.158 1.44l8.897 7.15-8.942 7.19c-.44.355-.51 1-.157 1.44.204.25.5.382.8.382z"/>
        <path id="prefix__am" d="M17.018 13.211H6.98c-.462 0-.836-.375-.836-.838 0-.463.374-.838.836-.838h10.04c.462 0 .836.375.836.838-.002.463-.376.838-.838.838zm0-4.54H6.98c-.462 0-.836-.374-.836-.838 0-.463.374-.838.836-.838h10.04c.462 0 .836.375.836.838-.002.464-.376.839-.838.839zm5.056 12.398h-3.088v.662c0 .463-.374.838-.836.838-.462 0-.836-.375-.836-.838v-.662H6.684v.662c0 .463-.375.838-.837.838-.462 0-.836-.375-.836-.838v-.662H1.923C.86 21.07 0 20.207 0 19.141V3.928C0 2.862.86 2 1.923 2h20.154C23.14 2 24 2.862 24 3.928v15.213c-.003 1.063-.863 1.928-1.926 1.928zm-20.15-1.928h3.09v-.434c0-.463.374-.838.836-.838.462 0 .836.375.836.838v.434h10.63v-.434c0-.463.375-.838.837-.838.462 0 .836.375.836.838v.434h3.09v-2.627H1.923v2.627zm20.15-15.213H1.924v10.917h20.153V3.928h-.003z"/>
        <path id="prefix__ao" d="M12 16.922c-.518 0-.938-.42-.938-.938V4.383c0-.518.42-.938.938-.938s.938.42.938.938v11.601c0 .518-.42.938-.938.938zM10.945 19.5c0 .582.473 1.055 1.055 1.055s1.055-.473 1.055-1.055-.473-1.055-1.055-1.055-1.055.473-1.055 1.055z"/>
        <path id="prefix__aq" d="M20.735 6.286c-1.104-1.09-2.57-1.695-4.137-1.697h-.016c-.752 0-1.486.14-2.184.417-.725.289-1.376.713-1.934 1.264l-5.459 5.395c-.63.623-.975 1.455-.972 2.344.002.886.351 1.718.984 2.343.633.626 1.472.97 2.367.973h.007c.893 0 1.73-.342 2.358-.96l4.79-4.735c.16-.157.247-.366.247-.586 0-.223-.087-.431-.246-.586-.157-.157-.368-.242-.59-.242-.223 0-.434.087-.591.242l-4.791 4.734c-.312.31-.731.478-1.179.478h-.002c-.453-.002-.877-.175-1.19-.487-.317-.314-.493-.731-.493-1.177-.002-.443.169-.858.483-1.167l5.458-5.398c.778-.77 1.824-1.195 2.94-1.195h.011c1.12.002 2.173.434 2.963 1.212.787.78 1.223 1.819 1.225 2.925.003 1.106-.426 2.142-1.207 2.913l-5.791 5.73c-1.158 1.14-2.705 1.768-4.355 1.768h-.016c-1.657-.005-3.213-.642-4.38-1.796-1.168-1.153-1.812-2.69-1.815-4.328-.004-1.639.633-3.172 1.79-4.315l7.478-7.393c.159-.157.246-.365.246-.585 0-.223-.087-.432-.246-.586-.16-.157-.37-.244-.593-.244-.223 0-.434.087-.591.241L3.827 9.183c-.745.736-1.322 1.6-1.715 2.566-.378.933-.567 1.917-.565 2.925.002 1.01.197 1.995.581 2.925.396.966.975 1.83 1.725 2.571.745.739 1.622 1.313 2.6 1.707.937.377 1.933.57 2.957.574h.021c1.017 0 2.004-.188 2.937-.56.975-.387 1.85-.957 2.595-1.695l5.79-5.728c.556-.55.988-1.193 1.278-1.913.282-.696.424-1.427.422-2.18-.007-1.546-.616-3-1.718-4.09z"/>
        <path id="prefix__as" d="M11.188 4.624c.408 0 .738.33.738.739 0 .408-.33.738-.739.738h-7.71v14.11h14.109v-7.055c.002-.027 0-.054 0-.082 0-.408.33-.739.738-.739s.738.33.738.739c0 .028-.002.055-.004.082h.005v7.054c0 .817-.66 1.477-1.477 1.477H3.476C2.66 21.687 2 21.027 2 20.21V6.101c0-.816.66-1.477 1.477-1.477zm6.345-2.19c.576-.576 1.515-.58 2.091-.004l1.627 1.626c.576.577.572 1.516-.004 2.092L13.1 14.294c-.062.06-.131.107-.21.14l-4.829 2.044c-.273.115-.547.035-.722-.141-.174-.177-.254-.45-.14-.72l2.047-4.828c.033-.078.08-.15.14-.209zm-1.272 3.36l-5.717 5.717-1.194 2.818 2.818-1.194 5.717-5.717-1.624-1.625zm2.32-2.32l-.005.004-1.271 1.272 1.624 1.624 1.276-1.276-1.624-1.624z"/>
        <path id="prefix__au" d="M12 0C5.372 0 0 5.372 0 12s5.372 12 12 12 12-5.372 12-12S18.628 0 12 0zm7.291 19.291c-.946.947-2.05 1.693-3.279 2.21-1.27.54-2.62.811-4.012.811-1.392 0-2.742-.271-4.013-.808-1.228-.52-2.33-1.263-3.278-2.21-.947-.947-1.693-2.051-2.21-3.28-.54-1.272-.812-2.622-.812-4.014 0-1.392.272-2.742.81-4.013.52-1.228 1.262-2.33 2.21-3.278.946-.947 2.05-1.693 3.278-2.21 1.273-.54 2.623-.812 4.015-.812 1.392 0 2.742.272 4.012.81 1.229.52 2.33 1.262 3.28 2.21.946.946 1.692 2.05 2.21 3.278.539 1.273.81 2.623.81 4.015 0 1.392-.271 2.742-.808 4.012-.52 1.229-1.263 2.333-2.213 3.28zm-4.52-2.753h-1.998V8.332c0-.466-.377-.844-.843-.844H9.68c-.467 0-.844.378-.844.844 0 .466.377.844.844.844h1.406v7.362H9.089c-.466 0-.844.377-.844.843 0 .467.378.844.844.844h5.681c.467 0 .844-.377.844-.844 0-.466-.377-.843-.844-.843zm-3.685-11.37c0 .466.378.844.844.844.466 0 .843-.378.843-.844 0-.466-.377-.844-.843-.844-.466 0-.844.378-.844.844z"/>
        <path id="prefix__aw" d="M18.019 13.506c.546 0 .835.646.472 1.053l-6.003 7.277c-.251.281-.692.281-.944 0l-6.032-7.277c-.365-.407-.074-1.053.47-1.053zm-5.53-11.342l6.002 7.277c.363.407.074 1.053-.472 1.053H5.983c-.545 0-.836-.646-.471-1.053l6.032-7.277c.252-.281.693-.281.944 0z"/>
        <path id="prefix__ay" d="M10.656 20.034V6.588c0-.002-.004-.004-.004-.002l-4.875 5.072c-.394.41-1.048.424-1.458.028-.41-.394-.424-1.048-.028-1.458l6.637-6.907c.195-.201.464-.316.743-.316.281 0 .549.115.743.316l6.673 6.945c.192.199.288.457.288.714 0 .272-.105.542-.316.743-.41.394-1.064.382-1.458-.028l-4.875-5.072c-.003-.002-.005 0-.005.003v13.432c0 .548-.429.996-.968 1.029-.6.035-1.097-.455-1.097-1.053z"/>
        <path id="prefix__aA" d="M3 10c1.105 0 2 .895 2 2s-.895 2-2 2-2-.895-2-2 .895-2 2-2zm9 0c1.105 0 2 .895 2 2s-.895 2-2 2-2-.895-2-2 .895-2 2-2zm9 0c1.105 0 2 .895 2 2s-.895 2-2 2-2-.895-2-2 .895-2 2-2z"/>
        <path id="prefix__aC" d="M12 0C5.372 0 0 5.372 0 12s5.372 12 12 12 12-5.372 12-12S18.628 0 12 0zm7.291 19.291c-.946.947-2.05 1.693-3.279 2.21-1.27.54-2.62.811-4.012.811-1.392 0-2.742-.271-4.013-.808-1.228-.52-2.33-1.263-3.278-2.21-.947-.947-1.693-2.051-2.21-3.28-.54-1.272-.812-2.622-.812-4.014 0-1.392.272-2.742.81-4.013.52-1.228 1.262-2.33 2.21-3.278.946-.947 2.05-1.693 3.278-2.21 1.273-.54 2.623-.812 4.015-.812 1.392 0 2.742.272 4.012.81 1.229.52 2.33 1.262 3.28 2.21.946.946 1.692 2.05 2.21 3.278.539 1.273.81 2.623.81 4.015 0 1.392-.271 2.742-.808 4.012-.52 1.229-1.263 2.333-2.213 3.28zm-.623-6.447H5.332c-.466 0-.844-.378-.844-.844 0-.466.378-.844.844-.844h13.336c.466 0 .844.378.844.844 0 .466-.378.844-.844.844z"/>
        <path id="prefix__aE" d="M13.305 11.998l5.972-5.968c.361-.36.361-.944 0-1.303-.36-.36-.944-.36-1.303 0L12 10.692 6.026 4.725c-.361-.36-.945-.36-1.303 0-.361.36-.361.945 0 1.303l5.972 5.967-5.972 5.97c-.361.36-.361.944 0 1.303.18.18.417.27.651.27.237 0 .471-.09.652-.27L12 13.301l5.974 5.97c.18.18.415.269.652.269.236 0 .47-.09.651-.27.361-.36.361-.944 0-1.303l-5.972-5.97z"/>
        <path id="prefix__aG" d="M20.747 10.46l-.005-.019-2.63-6.682c-.117-.377-.466-.637-.862-.637H6.59c-.398 0-.752.265-.864.647l-2.459 6.614-.007.016-.005.019c-.03.115-.04.232-.023.347-.002.037-.005.075-.005.112v8.576c0 .785.64 1.425 1.425 1.425h14.7c.785 0 1.425-.64 1.428-1.425v-8.576c0-.03 0-.06-.003-.086.01-.115 0-.225-.03-.33zm-6.933-1.008l-.007.368c-.019 1.053-.745 1.76-1.807 1.76-.518 0-.963-.166-1.284-.482-.321-.317-.497-.757-.507-1.278l-.007-.368H5.38l1.863-4.53h9.356l1.915 4.53h-4.699zm-8.789 1.8h3.687c.57 1.339 1.781 2.128 3.29 2.128.79 0 1.524-.22 2.117-.637.52-.366.926-.877 1.188-1.49h3.668v7.825H5.025v-7.826z"/>
        <path id="prefix__aI" d="M22.754 21.559l-4.821-4.82C19.224 15.182 20 13.183 20 11c0-4.971-4.029-9-9-9s-9 4.029-9 9 4.029 9 9 9c2.182 0 4.181-.776 5.74-2.067l4.82 4.82c.165.165.38.247.599.247.218 0 .43-.082.597-.246.326-.33.326-.865-.002-1.195zm-8.909-3.82c-.9.381-1.856.573-2.845.573-.99 0-1.945-.192-2.845-.574-.87-.368-1.653-.895-2.325-1.568-.673-.672-1.2-1.455-1.568-2.325-.382-.9-.574-1.856-.574-2.845 0-.99.192-1.945.574-2.845.368-.87.895-1.653 1.568-2.325.672-.673 1.455-1.2 2.325-1.568.9-.382 1.856-.574 2.845-.574.99 0 1.945.192 2.845.574.87.368 1.653.895 2.325 1.568.673.672 1.2 1.455 1.568 2.325.382.9.575 1.856.575 2.845 0 .99-.193 1.945-.575 2.845-.368.87-.895 1.653-1.568 2.325-.672.673-1.453 1.2-2.325 1.568z"/>
        <path id="prefix__aK" d="M16.905 7.162l-7.675 7.7-2.002-3.504c-.232-.406-.745-.546-1.15-.314-.406.232-.547.745-.315 1.15l2.55 4.465c.155.272.44.427.734.427.143 0 .286-.035.417-.11.075-.045.143-.096.2-.157l.009-.01 8.425-8.451c.329-.33.329-.865-.002-1.193-.328-.333-.86-.333-1.19-.003zM12 0C5.372 0 0 5.372 0 12s5.372 12 12 12 12-5.372 12-12S18.628 0 12 0zm7.291 19.291c-.946.947-2.05 1.693-3.279 2.21-1.27.54-2.62.811-4.012.811-1.392 0-2.742-.271-4.013-.808-1.228-.52-2.33-1.263-3.278-2.21-.947-.947-1.693-2.051-2.21-3.28-.54-1.272-.812-2.622-.812-4.014 0-1.392.272-2.742.81-4.013.52-1.228 1.262-2.33 2.21-3.278.946-.947 2.05-1.693 3.278-2.21 1.273-.54 2.623-.812 4.015-.812 1.392 0 2.742.272 4.012.81 1.229.52 2.33 1.262 3.28 2.21.946.946 1.692 2.05 2.21 3.278.539 1.273.81 2.623.81 4.015 0 1.392-.271 2.742-.808 4.012-.52 1.229-1.263 2.333-2.213 3.28z"/>
        <path id="prefix__aM" d="M10.532 20.993c-.55 0-1.105-.419-1.105-1.353v-7.984L3.43 5.024c-.177-.195-.3-.397-.368-.6-.09-.267-.082-.533.023-.769.104-.236.296-.42.554-.533.195-.086.427-.13.69-.13h15.342c.263 0 .495.044.69.13.258.113.45.297.554.533.105.236.113.502.023.77-.067.202-.191.404-.368.6l-5.997 6.63v4.805c0 .908-.528 2.027-1.228 2.604l-1.873 1.544c-.31.255-.626.385-.94.385z"/>
        <path id="prefix__aO" d="M18.349 11.333h-5.761V5.658c0-.364-.291-.658-.651-.658-.36 0-.651.294-.651.658v5.675H5.65c-.36 0-.651.294-.651.658 0 .364.291.658.651.658h5.635v5.693c0 .364.29.658.65.658.36 0 .652-.294.652-.658v-5.693h5.76c.36 0 .652-.294.652-.658 0-.364-.291-.658-.651-.658z"/>
        <path id="prefix__aQ" d="M4.197 22.238c-.034-.028-.067-.064-.1-.1.036.036.066.072.1.1zm-.224-.128c-.035-.032-.07-.065-.103-.1.032.035.068.068.103.1zM22.275 4.768c-.16-.16-.391-.248-.616-.248h-4.321V3.174c0-.91-.74-1.65-1.65-1.65H8.31c-.91 0-1.65.74-1.65 1.65V4.52H2.318c-.461 0-.839.374-.839.838 0 .464.375.838.839.838h.74v14.587c0 .91.74 1.65 1.65 1.65h14.818c.91 0 1.65-.74 1.65-1.65V6.196h.483c.46 0 .861-.374.861-.838 0-.222-.086-.43-.245-.59zM8.308 3.178h7.372v1.356H8.308V3.18zm11.216 17.603H4.708V6.196h14.815v14.585h.001zM11.988 9.005c-.466 0-.842.377-.842.843v7.819c0 .466.376.843.842.843.466 0 .843-.377.843-.843v-7.82c0-.465-.377-.842-.843-.842zm-4.564 0c-.466 0-.843.377-.843.843v7.819c0 .466.377.843.843.843.466 0 .842-.377.842-.843v-7.82c0-.465-.377-.842-.842-.842zm9.083 0c-.467 0-.843.377-.843.843v7.819c0 .466.376.843.843.843.466 0 .842-.377.842-.843v-7.82c0-.465-.376-.842-.842-.842z"/>
        <path id="prefix__aS" d="M12.673 15.673l-4.191 4.193c-.579.579-1.35.9-2.17.9-.82 0-1.592-.32-2.17-.9-.58-.582-.903-1.35-.903-2.17 0-.821.319-1.592.9-2.171l4.193-4.193c.33-.33.33-.865 0-1.193-.33-.33-.865-.33-1.193 0l-4.193 4.19c-.9.9-1.394 2.096-1.394 3.366s.494 2.466 1.394 3.364c.928.928 2.147 1.392 3.363 1.392 1.22 0 2.438-.464 3.364-1.392l4.193-4.193c.33-.33.33-.865 0-1.193-.33-.328-.863-.328-1.193 0zm8.383-12.725c-1.856-1.856-4.872-1.856-6.729 0l-4.193 4.193c-.33.33-.33.865 0 1.193.33.33.865.33 1.193 0l4.193-4.193c1.198-1.197 3.146-1.197 4.343 0 .58.58.9 1.35.9 2.17 0 .821-.318 1.592-.9 2.171l-4.193 4.193c-.33.33-.33.865 0 1.193.164.164.38.246.598.246.218 0 .431-.082.598-.246l4.193-4.193c1.854-1.854 1.854-4.873-.003-6.727zM11.38 13.863l2.39-2.39c.331-.33.331-.865 0-1.193-.33-.33-.864-.33-1.192 0l-2.391 2.39c-.33.33-.33.865 0 1.193.164.164.38.246.598.246.218 0 .428-.082.595-.246z"/>
        <path id="prefix__aU" d="M20.993 16.966c0-.225-.075-.452-.225-.642l-7.99-9.933c-.194-.241-.487-.382-.8-.382-.308 0-.604.141-.796.382l-7.948 9.891c-.354.44-.283 1.085.157 1.44.441.353 1.086.283 1.44-.158l7.15-8.897 7.19 8.942c.355.44 1 .51 1.44.157.25-.204.382-.5.382-.8z"/>
    </defs>
    <g fill="none" fill-rule="evenodd">
        <mask id="prefix__b" fill="#fff">
            <use xlink:href="#prefix__a"/>
        </mask>
        <g fill="#006594" mask="url(#prefix__b)">
            <path d="M0 0H24V24H0z"/>
        </g>
        <g transform="translate(0 92)">
            <mask id="prefix__d" fill="#fff">
                <use xlink:href="#prefix__c"/>
            </mask>
            <g fill="#006594" mask="url(#prefix__d)">
                <path d="M0 0H24V24H0z"/>
            </g>
        </g>
        <g transform="translate(0 184)">
            <mask id="prefix__f" fill="#fff">
                <use xlink:href="#prefix__e"/>
            </mask>
            <g fill="#006594" mask="url(#prefix__f)">
                <path d="M0 0H24V24H0z"/>
            </g>
        </g>
        <g transform="translate(0 46)">
            <mask id="prefix__h" fill="#fff">
                <use xlink:href="#prefix__g"/>
            </mask>
            <g fill="#006594" mask="url(#prefix__h)">
                <path d="M0 0H24V24H0z"/>
            </g>
        </g>
        <g>
            <path d="M0 0H24V24H0z" transform="translate(0 138)"/>
            <g transform="translate(0 138) translate(3)">
                <mask id="prefix__j" fill="#fff">
                    <use xlink:href="#prefix__i"/>
                </mask>
                <g fill="#006594" mask="url(#prefix__j)">
                    <path d="M0 0H120V120H0z" transform="translate(-51 -46)"/>
                </g>
            </g>
        </g>
        <g transform="translate(0 230)">
            <mask id="prefix__l" fill="#fff">
                <use xlink:href="#prefix__k"/>
            </mask>
            <g fill="#006594" mask="url(#prefix__l)">
                <path d="M0 0H24V24H0z"/>
            </g>
        </g>
        <g transform="translate(0 276)">
            <mask id="prefix__n" fill="#fff">
                <use xlink:href="#prefix__m"/>
            </mask>
            <g fill="#006594" mask="url(#prefix__n)">
                <path d="M0 0H24V24H0z"/>
            </g>
        </g>
        <g transform="translate(79 276)">
            <mask id="prefix__p" fill="#fff">
                <use xlink:href="#prefix__o"/>
            </mask>
            <g fill="#006594" mask="url(#prefix__p)">
                <path d="M0 0H24V24H0z"/>
            </g>
        </g>
        <g transform="translate(316)">
            <mask id="prefix__r" fill="#fff">
                <use xlink:href="#prefix__q"/>
            </mask>
            <g fill="#006594" mask="url(#prefix__r)">
                <path d="M0 0H24V24H0z"/>
            </g>
        </g>
        <g transform="translate(316 92)">
            <mask id="prefix__t" fill="#fff">
                <use xlink:href="#prefix__s"/>
            </mask>
            <g fill="#006594" mask="url(#prefix__t)">
                <path d="M0 0H24V24H0z"/>
            </g>
        </g>
        <g transform="translate(316 184)">
            <mask id="prefix__v" fill="#fff">
                <use xlink:href="#prefix__u"/>
            </mask>
            <use fill="#D9D9D9" fill-rule="nonzero" xlink:href="#prefix__u"/>
            <g fill="#006594" mask="url(#prefix__v)">
                <path d="M0 0H24V24H0z"/>
            </g>
        </g>
        <g transform="translate(316 46)">
            <mask id="prefix__x" fill="#fff">
                <use xlink:href="#prefix__w"/>
            </mask>
            <g fill="#006594" mask="url(#prefix__x)">
                <path d="M0 0H24V24H0z"/>
            </g>
        </g>
        <g transform="translate(316 138)">
            <mask id="prefix__z" fill="#fff">
                <use xlink:href="#prefix__y"/>
            </mask>
            <g fill="#006594" mask="url(#prefix__z)">
                <path d="M0 0H24V24H0z"/>
            </g>
        </g>
        <g transform="translate(316 230)">
            <mask id="prefix__B" fill="#fff">
                <use xlink:href="#prefix__A"/>
            </mask>
            <g fill="#006594" mask="url(#prefix__B)">
                <path d="M0 0H24V24H0z"/>
            </g>
        </g>
        <g transform="translate(158)">
            <mask id="prefix__D" fill="#fff">
                <use xlink:href="#prefix__C"/>
            </mask>
            <g fill="#006594" mask="url(#prefix__D)">
                <path d="M0 0H24V24H0z"/>
            </g>
        </g>
        <g transform="translate(158 92)">
            <mask id="prefix__F" fill="#fff">
                <use xlink:href="#prefix__E"/>
            </mask>
            <g fill="#006594" mask="url(#prefix__F)">
                <path d="M0 0H24V24H0z"/>
            </g>
        </g>
        <g transform="translate(158 184)">
            <rect width="23" height="23" x=".5" y=".5" fill="#FFF" fill-rule="nonzero" stroke="#C9CBD9" rx="1"/>
            <mask id="prefix__H" fill="#fff">
                <use xlink:href="#prefix__G"/>
            </mask>
            <use fill="#D9D9D9" fill-rule="nonzero" xlink:href="#prefix__G"/>
            <g fill="#006594" mask="url(#prefix__H)">
                <path d="M0 0H24V24H0z"/>
            </g>
        </g>
        <g transform="translate(158 46)">
            <mask id="prefix__J" fill="#fff">
                <use xlink:href="#prefix__I"/>
            </mask>
            <g fill="#006594" mask="url(#prefix__J)">
                <path d="M0 0H24V24H0z"/>
            </g>
        </g>
        <g transform="translate(158 138)">
            <mask id="prefix__L" fill="#fff">
                <use xlink:href="#prefix__K"/>
            </mask>
            <g fill="#006594" mask="url(#prefix__L)">
                <path d="M0 0H24V24H0z"/>
            </g>
        </g>
        <g transform="translate(158 230)">
            <mask id="prefix__N" fill="#fff">
                <use xlink:href="#prefix__M"/>
            </mask>
            <g fill="#006594" mask="url(#prefix__N)">
                <path d="M0 0H24V24H0z"/>
            </g>
        </g>
        <g transform="translate(474)">
            <mask id="prefix__P" fill="#fff">
                <use xlink:href="#prefix__O"/>
            </mask>
            <g fill="#006594" mask="url(#prefix__P)">
                <path d="M0 0H24V24H0z"/>
            </g>
        </g>
        <g transform="translate(474 92)">
            <mask id="prefix__R" fill="#fff">
                <use xlink:href="#prefix__Q"/>
            </mask>
            <g fill="#006594" mask="url(#prefix__R)">
                <path d="M0 0H24V24H0z"/>
            </g>
        </g>
        <g transform="translate(474 184)">
            <mask id="prefix__T" fill="#fff">
                <use xlink:href="#prefix__S"/>
            </mask>
            <g fill="#006594" mask="url(#prefix__T)">
                <path d="M0 0H24V24H0z"/>
            </g>
        </g>
        <g transform="translate(474 46)">
            <mask id="prefix__V" fill="#fff">
                <use xlink:href="#prefix__U"/>
            </mask>
            <use fill="#FFF" fill-rule="nonzero" xlink:href="#prefix__U"/>
            <g fill="#006594" mask="url(#prefix__V)">
                <path d="M0 0H24V24H0z"/>
            </g>
        </g>
        <g transform="translate(474 138)">
            <mask id="prefix__X" fill="#fff">
                <use xlink:href="#prefix__W"/>
            </mask>
            <g fill="#006594" mask="url(#prefix__X)">
                <path d="M0 0H24V24H0z"/>
            </g>
        </g>
        <g transform="translate(474 230)">
            <mask id="prefix__Z" fill="#fff">
                <use xlink:href="#prefix__Y"/>
            </mask>
            <g fill="#006594" mask="url(#prefix__Z)">
                <path d="M0 0H24V24H0z"/>
            </g>
        </g>
        <g transform="translate(79)">
            <mask id="prefix__ab" fill="#fff">
                <use xlink:href="#prefix__aa"/>
            </mask>
            <g fill="#006594" mask="url(#prefix__ab)">
                <path d="M0 0H24V24H0z"/>
            </g>
        </g>
        <g transform="translate(79 92)">
            <mask id="prefix__ad" fill="#fff">
                <use xlink:href="#prefix__ac"/>
            </mask>
            <g fill="#006594" mask="url(#prefix__ad)">
                <path d="M0 0H120V120H0z" transform="translate(-51 -50)"/>
            </g>
        </g>
        <g transform="translate(79 184)">
            <mask id="prefix__af" fill="#fff">
                <use xlink:href="#prefix__ae"/>
            </mask>
            <g fill="#006594" mask="url(#prefix__af)">
                <path d="M0 0H24V24H0z"/>
            </g>
        </g>
        <g transform="translate(79 46)">
            <mask id="prefix__ah" fill="#fff">
                <use xlink:href="#prefix__ag"/>
            </mask>
            <g fill="#006594" mask="url(#prefix__ah)">
                <path d="M0 0H24V24H0z"/>
            </g>
        </g>
        <g transform="translate(79 138)">
            <mask id="prefix__aj" fill="#fff">
                <use xlink:href="#prefix__ai"/>
            </mask>
            <g fill="#006594" mask="url(#prefix__aj)">
                <path d="M0 0H24V24H0z"/>
            </g>
        </g>
        <g transform="translate(79 230)">
            <mask id="prefix__al" fill="#fff">
                <use xlink:href="#prefix__ak"/>
            </mask>
            <g fill="#006594" mask="url(#prefix__al)">
                <path d="M0 0H24V24H0z"/>
            </g>
        </g>
        <g transform="translate(395)">
            <mask id="prefix__an" fill="#fff">
                <use xlink:href="#prefix__am"/>
            </mask>
            <g fill="#006594" mask="url(#prefix__an)">
                <path d="M0 0H24V24H0z"/>
            </g>
        </g>
        <g transform="translate(395 92)">
            <mask id="prefix__ap" fill="#fff">
                <use xlink:href="#prefix__ao"/>
            </mask>
            <g fill="#006594" mask="url(#prefix__ap)">
                <path d="M0 0H24V24H0z"/>
            </g>
        </g>
        <g transform="translate(395 184)">
            <mask id="prefix__ar" fill="#fff">
                <use xlink:href="#prefix__aq"/>
            </mask>
            <g fill="#006594" mask="url(#prefix__ar)">
                <path d="M0 0H24V24H0z"/>
            </g>
        </g>
        <g transform="translate(395 46)">
            <mask id="prefix__at" fill="#fff">
                <use xlink:href="#prefix__as"/>
            </mask>
            <g fill="#006594" mask="url(#prefix__at)">
                <path d="M0 0H24V24H0z"/>
            </g>
        </g>
        <g transform="translate(395 138)">
            <mask id="prefix__av" fill="#fff">
                <use xlink:href="#prefix__au"/>
            </mask>
            <g fill="#006594" mask="url(#prefix__av)">
                <path d="M0 0H24V24H0z"/>
            </g>
        </g>
        <g transform="translate(395 230)">
            <mask id="prefix__ax" fill="#fff">
                <use xlink:href="#prefix__aw"/>
            </mask>
            <g fill="#006594" mask="url(#prefix__ax)">
                <path d="M0 0H24V24H0z"/>
            </g>
        </g>
        <g transform="translate(237)">
            <mask id="prefix__az" fill="#fff">
                <use xlink:href="#prefix__ay"/>
            </mask>
            <g fill="#006594" mask="url(#prefix__az)">
                <path d="M0 0H24V24H0z"/>
            </g>
        </g>
        <g transform="translate(237 92)">
            <mask id="prefix__aB" fill="#fff">
                <use xlink:href="#prefix__aA"/>
            </mask>
            <g fill="#006594" mask="url(#prefix__aB)">
                <path d="M0 0H24V24H0z"/>
            </g>
        </g>
        <g transform="translate(237 184)">
            <mask id="prefix__aD" fill="#fff">
                <use xlink:href="#prefix__aC"/>
            </mask>
            <g fill="#006594" mask="url(#prefix__aD)">
                <path d="M0 0H24V24H0z"/>
            </g>
        </g>
        <g transform="translate(237 46)">
            <mask id="prefix__aF" fill="#fff">
                <use xlink:href="#prefix__aE"/>
            </mask>
            <g fill="#006594" mask="url(#prefix__aF)">
                <path d="M0 0H24V24H0z"/>
            </g>
        </g>
        <g transform="translate(237 138)">
            <mask id="prefix__aH" fill="#fff">
                <use xlink:href="#prefix__aG"/>
            </mask>
            <g fill="#006594" mask="url(#prefix__aH)">
                <path d="M0 0H24V24H0z"/>
            </g>
        </g>
        <g transform="translate(237 230)">
            <mask id="prefix__aJ" fill="#fff">
                <use xlink:href="#prefix__aI"/>
            </mask>
            <g fill="#006594" mask="url(#prefix__aJ)">
                <path d="M0 0H24V24H0z"/>
            </g>
        </g>
        <g transform="translate(553)">
            <mask id="prefix__aL" fill="#fff">
                <use xlink:href="#prefix__aK"/>
            </mask>
            <g fill="#006594" mask="url(#prefix__aL)">
                <path d="M0 0H24V24H0z"/>
            </g>
        </g>
        <g transform="translate(553 92)">
            <mask id="prefix__aN" fill="#fff">
                <use xlink:href="#prefix__aM"/>
            </mask>
            <g fill="#006594" mask="url(#prefix__aN)">
                <path d="M0 0H24V24H0z"/>
            </g>
        </g>
        <g transform="translate(553 184)">
            <rect width="24" height="24" fill="#FFF" stroke="#D9D9D9" rx="1"/>
            <mask id="prefix__aP" fill="#fff">
                <use xlink:href="#prefix__aO"/>
            </mask>
            <use fill="#D9D9D9" fill-rule="nonzero" xlink:href="#prefix__aO"/>
            <g fill="#006594" mask="url(#prefix__aP)">
                <path d="M0 0H24V24H0z"/>
            </g>
        </g>
        <g transform="translate(553 46)">
            <mask id="prefix__aR" fill="#fff">
                <use xlink:href="#prefix__aQ"/>
            </mask>
            <g fill="#006594" mask="url(#prefix__aR)">
                <path d="M0 0H24V24H0z"/>
            </g>
        </g>
        <g transform="translate(553 138)">
            <mask id="prefix__aT" fill="#fff">
                <use xlink:href="#prefix__aS"/>
            </mask>
            <g fill="#006594" mask="url(#prefix__aT)">
                <path d="M0 0H24V24H0z"/>
            </g>
        </g>
        <g transform="translate(553 230)">
            <mask id="prefix__aV" fill="#fff">
                <use xlink:href="#prefix__aU"/>
            </mask>
            <g fill="#006594" mask="url(#prefix__aV)">
                <path d="M0 0H24V24H0z"/>
            </g>
        </g>
    </g>
</svg>
