<svg xmlns="http://www.w3.org/2000/svg" xmlns:xlink="http://www.w3.org/1999/xlink" width="24" height="24" viewBox="0 0 24 24">
    <defs>
        <path id="prefix__a" d="M12 0C5.372 0 0 5.372 0 12s5.372 12 12 12 12-5.372 12-12S18.628 0 12 0zm7.291 19.291c-.946.947-2.05 1.693-3.279 2.21-1.27.54-2.62.811-4.012.811-1.392 0-2.742-.271-4.013-.808-1.228-.52-2.33-1.263-3.278-2.21-.947-.947-1.693-2.051-2.21-3.28-.54-1.272-.812-2.622-.812-4.014 0-1.392.272-2.742.81-4.013.52-1.228 1.262-2.33 2.21-3.278.946-.947 2.05-1.693 3.278-2.21 1.273-.54 2.623-.812 4.015-.812 1.392 0 2.742.272 4.012.81 1.229.52 2.33 1.262 3.28 2.21.946.946 1.692 2.05 2.21 3.278.539 1.273.81 2.623.81 4.015 0 1.392-.271 2.742-.808 4.012-.52 1.229-1.263 2.333-2.213 3.28zM1 11h4c.552 0 1 .448 1 1s-.448 1-1 1H1c-.552 0-1-.448-1-1s.448-1 1-1zM12 0c.552 0 1 .448 1 1v4c0 .552-.448 1-1 1s-1-.448-1-1V1c0-.552.448-1 1-1zm0 18c.552 0 1 .448 1 1v4c0 .552-.448 1-1 1s-1-.448-1-1v-4c0-.552.448-1 1-1zm7-7h4c.552 0 1 .448 1 1s-.448 1-1 1h-4c-.552 0-1-.448-1-1s.448-1 1-1zM1 11h4c.552 0 1 .448 1 1s-.448 1-1 1H1c-.552 0-1-.448-1-1s.448-1 1-1zM12 0c.552 0 1 .448 1 1v4c0 .552-.448 1-1 1s-1-.448-1-1V1c0-.552.448-1 1-1zm0 18c.552 0 1 .448 1 1v4c0 .552-.448 1-1 1s-1-.448-1-1v-4c0-.552.448-1 1-1zm0-9c1.657 0 3 1.343 3 3s-1.343 3-3 3-3-1.343-3-3 1.343-3 3-3zm11 2c.552 0 1 .448 1 1s-.448 1-1 1h-4c-.552 0-1-.448-1-1s.448-1 1-1h4z"/>
    </defs>
    <g fill="none" fill-rule="evenodd">
        <mask id="prefix__b" fill="#fff">
            <use xlink:href="#prefix__a"/>
        </mask>
        <g fill="#006594" mask="url(#prefix__b)">
            <path d="M0 0H24V24H0z"/>
        </g>
    </g>
</svg>
